<?xml version="1.0" encoding="utf-8"?>
<!-- Generator: Adobe Illustrator 24.1.0, SVG Export Plug-In . SVG Version: 6.00 Build 0)  -->
<svg version="1.1" id="Laag_1" xmlns="http://www.w3.org/2000/svg" xmlns:xlink="http://www.w3.org/1999/xlink" x="0px" y="0px"
	 viewBox="0 0 1200 800" style="enable-background:new 0 0 1200 800;" xml:space="preserve">
<style type="text/css">
	.st0{fill:#EA3426;}
</style>
<path class="st0" d="M579.1,149.4c3.3-0.1,6.7-0.3,10-0.4c3.7,0.2,7.3,0.4,11,0.7c3.3,0.6,6.7,1.3,10,1.9c7.2,2.1,14.2,4.7,21,8
	c7.5,4.2,14.4,9.1,20.9,14.6c0.3,0.3,0.7,0.6,1,0.9c3.2,3.4,6.5,6.8,9.7,10.3c2.8,3.7,5.7,7.3,8.3,11.2c3.2,5,3.2,4.9,6.1-0.5
	c2.3-3.1,4.6-6.3,6.9-9.4c0.3-0.4,0.6-0.8,0.9-1.2c6.2-7,13-13.4,20.5-19c1.2-0.8,2.4-1.6,3.7-2.4c2-1.2,3.9-2.4,5.9-3.6
	c6.8-3.4,13.7-6.3,21-8.5c3.7-0.7,7.3-1.5,11-2.2c3.3-0.3,6.7-0.6,10-0.9c3.7,0.1,7.3,0.1,11,0.2c3.3,0.4,6.7,0.9,10,1.3
	c3.7,0.9,7.3,1.8,11,2.7c7.3,2.5,14.3,5.7,20.9,9.5c0.9,0.9,1.9,1.5,3,1.9c2.3,1.8,4.7,3.6,7,5.4c1.9,1.7,3.7,3.4,5.6,5
	c1.8,1.9,3.6,3.8,5.3,5.7c1.2,1.4,2.3,2.9,3.5,4.3c2.2,3.4,4.3,6.7,6.5,10.1c0.2,0.3,0.3,0.6,0.5,0.9c1.5,3.3,3.1,6.6,4.6,10
	c1.2,3.7,2.4,7.3,3.5,11c0.6,3,1.3,6,1.9,9c0,0.3,0.1,0.7,0.1,1c0.3,3.7,0.6,7.3,1,11c0,3.3,0,6.7,0,10c-0.2,3.7-0.4,7.3-0.6,11
	c-0.5,1.6-0.5,3.3-0.4,5c-1.3,8.7-2.5,17.4-4.8,25.9c-1.2,3.7-2.3,7.3-3.5,11c-2.9,7.2-6.3,14.2-10.2,21c-1,1.4-2,2.8-2.7,4.4
	c-1.5,1.7-2.7,3.6-3.8,5.6c-6.8,8.9-14,17.5-21.9,25.3c-5.3,5.2-10.7,10.4-16,15.6c-0.2,0.2-0.4,0.3-0.5,0.5
	c-6.7,5.9-13.4,11.9-20,17.8c-1.5,1-2.9,2.2-4.1,3.5c-5.9,4.9-11.7,9.9-17.3,15.1c-2.2,1.6-4.3,3.3-6.1,5.3c-1.6,1-3,2.4-4.4,3.7
	c-3.2,2.5-6.2,5.1-9,7.9c-0.3,0.3-0.7,0.6-1,0.9c-3.3,2.7-6.6,5.4-9.5,8.5c-0.6,0.2-1.1,0.7-1.4,1.2c-2,1.7-4,3.4-6,5.2
	c-11.3,10.1-22.5,20.4-33.5,30.9c-0.7,0.7-1.3,1.6-2.5,0.7c-5.6-5.7-11.5-11.1-17.5-16.4c-1-1.2-2.1-2.3-3.4-3.2c-3.2-3-6.4-6-9.7-9
	c-7.1-6.3-14-12.8-21.3-18.8c-3.5-3.4-7.1-6.6-11-9.6c-0.4-0.6-0.9-1.1-1.6-1.4c-2.6-2.6-5.5-5-8.4-7.3c-1-0.9-2.1-1.8-3.1-2.6
	c-2.3-2.3-4.8-4.5-7.5-6.5c-0.4-0.4-0.8-0.8-1.2-1.2c-13.5-11.8-27.1-23.6-40-36.1c-12.7-12.4-24.2-25.6-33.6-40.6
	c-3.6-6.7-7-13.4-9.8-20.5c-1.2-3.6-2.3-7.3-3.5-10.9c-0.8-3.3-1.6-6.7-2.4-10c-1.5-8.8-2.6-17.6-3-26.5c0-0.7-0.2-1.3-0.3-1.9
	c0-1,0-2-0.1-3c0-3.5,0-7,0-10.5c0-1,0.1-2,0.1-3c1.1-9.9,2.9-19.6,6.5-29c3.1-7.4,7-14.3,11.6-20.9c3.9-4.7,8-9.2,12.4-13.5
	c3-2.3,6-4.6,9-7c0.7-0.4,1.3-0.8,2-1.2c6.6-4,13.6-7.3,21-9.9c3.3-0.9,6.7-1.7,10-2.6C571.8,150.4,575.4,149.9,579.1,149.4z"/>
</svg>
