<?xml version="1.0" encoding="utf-8"?>
<!-- Generator: Adobe Illustrator 24.1.0, SVG Export Plug-In . SVG Version: 6.00 Build 0)  -->
<svg version="1.1" id="Laag_1" xmlns="http://www.w3.org/2000/svg" xmlns:xlink="http://www.w3.org/1999/xlink" x="0px" y="0px"
	 viewBox="0 0 1200 800" style="enable-background:new 0 0 1200 800;" xml:space="preserve">
<style type="text/css">
	.st0{fill:none;stroke:#282528;stroke-width:9;stroke-miterlimit:10;}
	.st1{fill:#282528;}
</style>
<circle class="st0" cx="688.4" cy="333" r="120.4"/>
<path class="st1" d="M692.6,212.8h-7.2c-1.7,0-3.2-1.4-3.2-3.2v-30.8c0-1.7,1.4-3.2,3.2-3.2h7.2c1.7,0,3.2,1.4,3.2,3.2v30.8
	C695.8,211.4,694.4,212.8,692.6,212.8z"/>
<path class="st1" d="M693.1,488h-7.2c-1.7,0-3.2-1.4-3.2-3.2v-30.8c0-1.7,1.4-3.2,3.2-3.2h7.2c1.7,0,3.2,1.4,3.2,3.2v30.8
	C696.3,486.6,694.9,488,693.1,488z"/>
<path class="st1" d="M848.3,328.8v7.2c0,1.7-1.4,3.2-3.2,3.2h-30.8c-1.7,0-3.2-1.4-3.2-3.2v-7.2c0-1.7,1.4-3.2,3.2-3.2h30.8
	C846.8,325.6,848.3,327,848.3,328.8z"/>
<path class="st1" d="M571.3,328.8v7.2c0,1.7-1.4,3.2-3.2,3.2h-30.8c-1.7,0-3.2-1.4-3.2-3.2v-7.2c0-1.7,1.4-3.2,3.2-3.2h30.8
	C569.8,325.6,571.3,327,571.3,328.8z"/>
<circle class="st1" cx="692.6" cy="329.7" r="12.7"/>
</svg>
